<?xml version="1.0" encoding="UTF-8"?>
<svg id="Laag_1" data-name="Laag 1" xmlns="http://www.w3.org/2000/svg" viewBox="0 0 594.29 596.48">
  <defs>
    <style>
      .cls-1 {
        fill: #fff;
      }

      .cls-2 {
        fill: #f08906;
      }
    </style>
  </defs>
  <path class="cls-1" d="m299.03,212.05c-46.77,0-85.04,38.27-85.04,85.04v214.04c0,46.77,37.72,85.04,83.82,85.04s83.82-38.27,83.82-85.04v-43.51c0-46.77,38.27-85.04,85.04-85.04h41.94c46.77,0,85.04-38.27,85.04-85.04v-.45c0-46.77-38.27-85.04-85.04-85.04h-209.57Zm209.52,152.27c-36.58,0-66.23-29.65-66.23-66.23s29.65-66.23,66.23-66.23,66.23,29.65,66.23,66.23-29.65,66.23-66.23,66.23Z"/>
  <rect class="cls-2" x="213" y="423.68" width="380.65" height="172.8" rx="85.04" ry="85.04"/>
  <g>
    <circle class="cls-1" cx="298.25" cy="510.16" r="76.26" transform="translate(-266.79 683.23) rotate(-76.72)"/>
    <path class="cls-2" d="m298.25,443.91c36.53,0,66.26,29.72,66.26,66.26s-29.72,66.26-66.26,66.26-66.26-29.72-66.26-66.26,29.72-66.26,66.26-66.26m0-20c-47.64,0-86.26,38.62-86.26,86.26s38.62,86.26,86.26,86.26,86.26-38.62,86.26-86.26-38.62-86.26-86.26-86.26h0Z"/>
  </g>
  <g>
    <circle class="cls-1" cx="508.81" cy="510.16" r="75.48"/>
    <path class="cls-2" d="m508.81,444.68c36.11,0,65.48,29.37,65.48,65.48s-29.37,65.48-65.48,65.48-65.48-29.37-65.48-65.48,29.37-65.48,65.48-65.48m0-20c-47.21,0-85.48,38.27-85.48,85.48s38.27,85.48,85.48,85.48,85.48-38.27,85.48-85.48-38.27-85.48-85.48-85.48h0Z"/>
  </g>
  <path class="cls-1" d="m85.04,0C38.27,0,0,38.27,0,85.04v426.09c0,46.77,38.26,85.04,85.03,85.04s85.03-38.27,85.03-85.04V254.99c0-46.77,38.27-85.04,85.04-85.04h253.51c46.77,0,85.04-38.24,85.04-84.97S555.38,0,508.61,0H85.04Zm423.77,150.45c-36,0-65.19-29.19-65.19-65.19s29.19-65.19,65.19-65.19,65.19,29.19,65.19,65.19-29.19,65.19-65.19,65.19Z"/>
</svg>